Simulation
nRows=43
nColumns=15
endheader
time  TH_x TH_y TH_z SC_y  SC_z  SC_x  AC_y  AC_z  AC_x  GH_y  GH_z  GH_yy  EL_x  PS_y
4.133333333333333  0.000000  0.000000  0.000000  -21.94734131951431  5.241786337648223  19.350017950036314  59.65796222036119  9.740420688407427  2.118290249174736  50.22121920800916  57.35858130637243  -51.55851880301689  11.27506339681468  120.000000
4.173856209150326  0.000000  0.000000  0.000000  -21.949520272910046  5.007466056439887  19.105611139045493  59.909444794661056  9.513623580830112  1.8128815636980284  51.14233430729443  57.230205952310726  -52.61472290282014  10.921366748366859  120.000000
4.2143790849673195  0.000000  0.000000  0.000000  -21.99322476485624  4.776952606347884  18.872736654771177  60.18515062365044  9.304228920192369  1.5525133783447982  52.11895180643782  57.12636535148268  -53.63806053566912  10.584169875469481  120.000000
4.254901960784313  0.000000  0.000000  0.000000  -22.0788940080272  4.554119959144682  18.663280919831173  60.48384191743805  9.11707260327668  1.341585222032355  53.13633342754915  57.04919895396841  -54.61521973556409  10.271851092319043  120.000000
4.295424836601307  0.000000  0.000000  0.000000  -22.201735336739315  4.34345223503877  18.486256509983132  60.802535674186636  8.953461058828262  1.1816396186074383  54.17834587782993  56.999459796836916  -55.53827429995856  9.99085024785556  120.000000
4.3359477124183  0.000000  0.000000  0.000000  -22.3524804429965  4.1494285491457505  18.34736005954304  61.13627919848831  8.811169510424099  1.0713044850023632  55.22762759814116  56.976702741194224  -56.403785393095745  9.745802070833085  120.000000
4.376470588235294  0.000000  0.000000  0.000000  -22.519090489503565  3.975867830996636  18.249378843164006  61.47833590551118  8.685350746001172  1.0064702186823478  56.26606089754154  56.979041120362005  -57.21088309284398  9.539825664713259  120.000000
4.416993464052287  0.000000  0.000000  0.000000  -22.688900116765176  3.825368519291302  18.193111049035764  61.820751832458384  8.5698025753859  0.9806312350247146  57.275505704212456  57.002724996363014  -57.95906514547467  9.375335242052497  120.000000
4.45751633986928  0.000000  0.000000  0.000000  -22.850523214550243  3.6989853191274475  18.178143062304994  62.155065282495464  8.458048089818908  0.9853416894435774  58.238797422542596  57.042173185577454  -58.64668783139995  9.254908863107103  120.000000
4.498039215686274  0.000000  0.000000  0.000000  -22.99500585035132  3.596377978161003  18.203193720100707  62.47300833624786  8.344185565602357  1.0111470713686128  59.14082098817355  57.090411382784986  -59.27065055985813  9.18124778148809  120.000000
4.538562091503268  0.000000  0.000000  0.000000  -23.11630224648492  3.5161549415779003  18.26636431293504  62.767338563182655  8.223518671008623  1.0486379765549585  59.96950790301227  57.139845886645176  -59.82709320140305  9.156139475649097  120.000000
4.579084967320261  0.000000  0.000000  0.000000  -23.21156398964637  3.456036708729824  18.36545757951561  63.03279131367428  8.09292945875621  1.0893253307263242  60.716826870148694  57.18331554102474  -60.31268763670416  9.17909298143093  120.000000
4.6196078431372545  0.000000  0.000000  0.000000  -23.281122623457296  3.4130795101018316  18.498118147292345  63.26671529617765  7.950937329476125  1.1263393192109363  61.379478221177784  57.21527687834444  -60.7261439112293  9.246218003113244  120.000000
4.660130718954248  0.000000  0.000000  0.000000  -23.327957088949866  3.3840763745921585  18.661751380655268  63.46908995136601  7.797591191189874  1.1548978195567698  61.95886782430905  57.23264737524768  -61.069459468916314  9.349871076397317  120.000000
4.700653594771241  0.000000  0.000000  0.000000  -23.356945031808365  3.3659255681614537  18.85329854002137  63.64204307480079  7.6342050501141285  1.172328737742527  62.46024153201121  57.235176662847365  -61.34858733503117  9.479453176472004  120.000000
4.741176470588234  0.000000  0.000000  0.000000  -23.37417659731356  3.3558543365033726  19.06905609595655  63.78912055940309  7.463033419340616  1.1777378570753945  62.89139396452115  57.225323949700304  -61.57326232709303  9.622764666669966  120.000000
4.781699346405228  0.000000  0.000000  0.000000  -23.386266744464542  3.35151137331259  19.30463525213473  63.91455341182427  7.286965377711809  1.1715442402378238  63.261296484755555  57.20769146788907  -61.75608294620303  9.767155600665651  120.000000
4.822222222222222  0.000000  0.000000  0.000000  -23.399590546160063  3.3509615689716066  19.55504345963337  64.02264903989115  7.109255279363421  1.1550362588771903  63.57879484016285  57.18804272907879  -61.91095204921796  9.900376020758406  120.000000
4.862745098039215  0.000000  0.000000  0.000000  -23.419422032754603  3.3526526461303945  19.81477666959102  64.11725432720657  6.933275816329438  1.1299667240654545  63.85137923831047  57.17193156150938  -62.05101597708773  10.011610452034748  120.000000
4.903267973856209  0.000000  0.000000  0.000000  -23.449074857137077  3.355392463308722  20.077852813909193  64.20119812085278  6.762298456039283  1.098169195443025  64.08404550898693  57.163049976554454  -62.18634788174638  10.09301285812299  120.000000
4.943790849673202  0.000000  0.000000  0.000000  -23.489279546130316  3.358389033293908  20.337771890444074  64.27574671517235  6.599334567542902  1.0612117333031297  64.27845896788126  57.16173156892711  -62.321914323414006  10.1412484831691  120.000000
4.984313725490195  0.000000  0.000000  0.000000  -23.53808348931149  3.361243629679585  20.587508124400053  64.34031907735498  6.447082256530843  1.0201395229819916  64.43273309546765  57.164229495603045  -62.45655693747808  10.15796086025631  120.000000
5.024836601307189  0.000000  0.000000  0.000000  -23.591308054191714  3.3638874025688  20.81958387133964  64.39255340398852  6.308003756353634  0.9753312785907006  64.54190384844941  57.16310660218344  -62.58321531898271  10.148808068593892  120.000000
5.065359477124183  0.000000  0.000000  0.000000  -23.643310089231687  3.366583859512396  21.0262061719566  64.42854225412653  6.1844369184482835  0.9265431895078232  64.59873784272025  57.148488461065035  -62.68999034915107  10.121913950625324  120.000000
5.105882352941176  0.000000  0.000000  0.000000  -23.68778548133579  3.3700709909591096  21.199495936256653  64.44308734929248  6.078718519894602  0.8731388678749712  64.59448326567505  57.109759709174675  -62.761365866437224  10.086573736969655  120.000000
5.146405228758169  0.000000  0.000000  0.000000  -23.7185114075327  3.3758479063310394  21.331878665632463  64.42997615409882  5.993353683799412  0.8145877497301074  64.51937902548846  57.03736818539183  -62.77913525927174  10.052375509945252  120.000000
5.186928104575163  0.000000  0.000000  0.000000  -23.730011416745104  3.3863801444269104  21.41678328424287  64.38253350028118  5.931276448304358  0.7511790561370707  64.36286846957799  56.924579438177055  -62.722853585660125  10.028231637790501  120.000000
5.227450980392156  0.000000  0.000000  0.000000  -23.718162587522333  3.405106105246538  21.44968533412147  64.29452697379115  5.8962705373202375  0.6848939428639012  64.11365799109446  56.768853270136226  -62.56974870648128  10.021050558973263  120.000000
5.267973856209149  0.000000  0.000000  0.000000  -23.680764584145653  3.436093464313806  21.429229127042714  64.16134744090317  5.89331845564746  0.6200198609378482  63.759624263240674  56.57277207899627  -62.29442474114966  10.034478291682888  120.000000
5.308496732026143  0.000000  0.000000  0.000000  -23.617799822461627  3.483702534614753  21.357953418790252  63.98096975068631  5.9285805920716985  0.5634357272451612  63.287614967482206  56.34421762457058  -61.868713570183175  10.06834345532382  120.000000
5.349019607843137  0.000000  0.000000  0.000000  -23.53147694449566  3.5523000804118823  21.24242381813091  63.75428303804725  6.008696954283806  0.5241702439477233  62.683514198257946  56.095783882002465  -61.26207866195942  10.119579821459071  120.000000
5.38954248366013  0.000000  0.000000  0.000000  -23.426193364800493  3.6458675825648252  21.092454146949926  63.48475189143203  6.139999670857782  0.5125763223231878  61.93285167343446  55.84359037679657  -60.442598531362584  10.183842532863109  120.000000
5.4300653594771235  0.000000  0.000000  0.000000  -23.30788948899075  3.76807113765063  20.92019702257791  63.17738215833451  6.327603604601898  0.5396162329623359  61.02209388047936  55.60545721304731  -59.37906597551478  10.25642438809247  120.000000
5.470588235294117  0.000000  0.000000  0.000000  -23.183341601283978  3.9216749094551924  20.738566465018707  62.83795268008788  6.574767505887329  0.6157231709040115  59.94069377321396  55.39905008920478  -58.043787106884096  10.332964504926455  120.000000
5.51111111111111  0.000000  0.000000  0.000000  -23.059333914586038  4.107952510592949  20.55867454999721  62.472607652746554  6.882447656820916  0.7498915375851006  58.68383396992057  55.240433847068054  -56.41715948774588  10.410332981970765  120.000000
5.5516339869281035  0.000000  0.000000  0.000000  -22.94130184959294  4.327152724658281  20.389064918335738  62.08715204380403  7.246949432202795  0.948791171181723  57.25479682992728  55.14367923201249  -54.493382586478056  10.486878487738418  120.000000
5.592156862745098  0.000000  0.000000  0.000000  -22.832646472790195  4.5785560167599755  20.23601739282488  61.686893802636106  7.658641296553324  1.2158095826676996  55.666346927116706  55.12091430873752  -52.28535424310802  10.562533059758684  120.000000
5.632679738562091  0.000000  0.000000  0.000000  -22.73473095666398  4.860239546821821  20.103385682575944  61.27680084390603  8.102987646154476  1.5503985379937903  53.941301943055066  55.182528208896194  -49.826932057740486  10.639152139173301  120.000000
5.673202614379084  0.000000  0.000000  0.000000  -22.64756039890165  5.1692298301392805  19.99316385744094  60.861946839219975  8.56230992006672  1.9480670386578227  52.11254518227864  55.336832733828025  -47.17190358525447  10.72024714804982  120.000000
5.713725490196078  0.000000  0.000000  0.000000  -22.57139693785697  5.501857668726392  19.906808593315223  60.44798272012484  9.017606324981854  2.4007807318314183  50.22287421036014  55.5896672755136  -44.39112388770947  10.809670763808771  120.000000
5.754248366013071  0.000000  0.000000  0.000000  -22.508265012572767  5.853860890338846  19.847639435314957  60.042131891379846  9.44967358866021  2.897402530912404  48.323348982279725  55.94335107659072  -41.56851156989424  10.910783709367704  120.000000
5.794771241830064  0.000000  0.000000  0.000000  -22.46253090594507  6.220137657619388  19.82166706581408  59.65425515993995  9.841532721236605  3.4251231150392925  46.47123481497207  56.39540787138025  -38.79716485919593  11.026166557699192  120.000000
5.835294117647058  0.000000  0.000000  0.000000  -22.441692447803305  6.5934105594707235  19.83624279264014  59.29833028295334  10.181764288634641  3.9711380278466955  44.72790248466278  56.93746308268779  -36.17541124538025  11.159545079450279  120.000000
